<svg width="63" height="63" viewBox="0 0 63 63" fill="none" xmlns="http://www.w3.org/2000/svg">
<path d="M31.6193 4.92249C30.9388 4.91757 30.3839 5.46513 30.3789 6.14435C30.374 6.82357 30.9203 7.37851 31.6008 7.38343C32.28 7.38835 32.835 6.84202 32.8399 6.1628C32.8448 5.48358 32.2985 4.92864 31.6193 4.92249Z" fill="#10D0A1"/>
<path d="M31.5647 12.3052C26.8138 12.2715 22.9229 16.1043 22.887 20.8538C22.8512 25.603 26.686 29.4958 31.4355 29.5316C31.4576 29.5317 31.4795 29.5318 31.5015 29.5318C36.2207 29.5318 40.0776 25.7105 40.1133 20.983C40.1491 16.234 36.3144 12.341 31.5647 12.3052ZM31.5013 27.071C31.4857 27.071 31.4695 27.0709 31.454 27.0707C28.0615 27.0452 25.3222 24.2645 25.3478 20.8722C25.3733 17.4952 28.128 14.7658 31.499 14.7658C31.5145 14.7658 31.5308 14.7659 31.5463 14.766C34.9388 14.7916 37.6781 17.5722 37.6525 20.9645C37.6269 24.3416 34.8722 27.071 31.5013 27.071Z" fill="#10D0A1"/>
<path d="M36.8685 5.85569C36.2284 5.62854 35.5247 5.96384 35.2976 6.60443C35.0706 7.24501 35.4059 7.94823 36.0463 8.17537C41.4662 10.0963 45.0782 15.2582 45.0349 21.0201C45.0299 21.6996 45.5766 22.2547 46.2562 22.2598C46.2592 22.2598 46.2624 22.2598 46.2656 22.2598C46.9407 22.2598 47.4907 21.715 47.4959 21.0386C47.547 14.2283 43.2762 8.12677 36.8685 5.85569Z" fill="#10D0A1"/>
<path d="M39.0503 46.3201C47.2345 35.7854 52.3492 30.292 52.4183 21.0753C52.5049 9.47894 43.094 0 31.4985 0C20.0384 0 10.6699 9.2812 10.5827 20.7615C10.5124 30.2281 15.722 35.7141 23.9628 46.3184C15.7647 47.5434 10.5827 50.6217 10.5827 54.3868C10.5827 56.9089 12.914 59.1721 17.1472 60.7594C21.0002 62.2043 26.0976 63 31.5005 63C36.9034 63 42.0008 62.2043 45.8538 60.7594C50.087 59.172 52.4183 56.9088 52.4183 54.3867C52.4183 50.6237 47.2411 47.5461 39.0503 46.3201ZM13.0436 20.7801C13.1203 10.6497 21.386 2.46094 31.4988 2.46094C41.7312 2.46094 50.0337 10.8267 49.9574 21.0569C49.892 29.8098 44.4678 35.2038 35.8081 46.4925C34.2635 48.505 32.845 50.4079 31.5023 52.2692C30.1636 50.4067 28.7734 48.538 27.2057 46.4918C18.188 34.7304 12.9769 29.7441 13.0436 20.7801ZM31.5005 60.5392C20.9368 60.5392 13.0436 57.2911 13.0436 54.3868C13.0436 52.233 17.7622 49.5122 25.696 48.57C27.4498 50.8711 28.9874 52.9617 30.4954 55.0968C30.7258 55.4229 31.1001 55.6171 31.4994 55.6173C31.4998 55.6173 31.5001 55.6173 31.5005 55.6173C31.8994 55.6173 32.2736 55.4239 32.5043 55.0984C33.9981 52.9911 35.5778 50.849 37.3166 48.5714C45.243 49.5145 49.9574 52.2345 49.9574 54.3869C49.9573 57.2911 42.0642 60.5392 31.5005 60.5392Z" fill="black"/>
</svg>
