<svg width="56" height="56" viewBox="0 0 56 56" fill="none" xmlns="http://www.w3.org/2000/svg">
<path d="M55.065 50.4H52.265V32.6666C52.2646 32.1512 51.8464 31.7337 51.3309 31.734C51.0268 31.7342 50.7418 31.8826 50.5672 32.1318L37.5006 50.7985C37.2052 51.221 37.3082 51.8029 37.7306 52.0982C37.8873 52.2077 38.0737 52.2665 38.265 52.2666H50.3983V55.0666C50.3983 55.5821 50.8162 56 51.3316 56C51.8471 56 52.265 55.5821 52.265 55.0666V52.2666H55.065C55.5804 52.2666 55.9983 51.8487 55.9983 51.3333C55.9983 50.8179 55.5804 50.4 55.065 50.4ZM50.3983 50.4H40.057L50.3983 35.6272V50.4Z" fill="#10D0A1"/>
<path d="M38.2656 54.1333H27.2159L37.4891 42.0364C37.5124 42.0086 37.5342 41.9797 37.5544 41.9496C39.4871 39.0891 38.8434 35.2164 36.0891 33.1352C32.7402 30.7289 28.0747 31.4932 25.6685 34.8421C24.7561 36.112 24.2654 37.6363 24.2656 39.2C24.2656 39.7154 24.6835 40.1333 25.199 40.1333C25.7144 40.1333 26.1323 39.7154 26.1323 39.2C26.1319 36.1071 28.639 33.5997 31.7317 33.5994C32.904 33.5993 34.0467 33.967 34.999 34.6509C36.9283 36.1292 37.3776 38.8517 36.0256 40.8716L24.4878 54.4628C24.1542 54.8558 24.2025 55.4448 24.5956 55.7783C24.7641 55.9213 24.9779 55.9999 25.199 56H38.2656C38.7811 56 39.199 55.5821 39.199 55.0666C39.199 54.5512 38.7811 54.1333 38.2656 54.1333Z" fill="#10D0A1"/>
<path d="M25.2205 49.4844C25.24 48.9693 24.8381 48.536 24.323 48.5165C24.3229 48.5165 24.3228 48.5165 24.3227 48.5165C12.1462 48.0646 2.37312 38.309 1.89933 26.1333H5.6C6.11543 26.1333 6.53333 25.7154 6.53333 25.2C6.53333 24.6846 6.11543 24.2667 5.6 24.2667H1.89933C2.36635 12.1124 12.1123 2.36682 24.2667 1.90027V4.66667C24.2667 5.1821 24.6846 5.6 25.2 5.6C25.7154 5.6 26.1333 5.1821 26.1333 4.66667V1.90027C38.1213 2.3639 47.7967 11.8566 48.4885 23.8336L44.8485 20.1936C44.4778 19.8354 43.887 19.8457 43.5288 20.2165C43.1795 20.5781 43.1795 21.1515 43.5288 21.5133L48.7387 26.7232C48.8368 26.842 48.9632 26.934 49.1064 26.9911C49.1429 27.002 49.18 27.0111 49.2175 27.0181C49.2815 27.0412 49.3478 27.0572 49.4153 27.0657C49.4247 27.0657 49.4331 27.0657 49.4424 27.0657C49.4517 27.0657 49.4601 27.0657 49.4685 27.0657C49.5396 27.0604 49.6098 27.0466 49.6776 27.0247C49.716 27.02 49.754 27.0129 49.7915 27.0032C49.9178 26.9583 50.0328 26.8863 50.1284 26.7923L55.4092 21.5133C55.7673 21.1426 55.7571 20.5518 55.3863 20.1936C55.0247 19.8443 54.4512 19.8443 54.0895 20.1936L50.3589 23.9213C49.6922 10.5432 38.661 0.0327833 25.2663 0.0130667C25.2429 0.0121333 25.2233 0 25.2 0C25.1767 0 25.1571 0.0121333 25.1337 0.0130667C11.2679 0.0320833 0.0320833 11.2679 0.0130667 25.1337C0.0130667 25.1571 0 25.1767 0 25.2C0 25.2233 0.0121333 25.2429 0.0130667 25.2663C0.0362833 38.7899 10.7393 49.8794 24.2536 50.3823H24.2881C24.7897 50.3821 25.2015 49.9856 25.2205 49.4844Z" fill="#171151"/>
<path d="M37.7405 12.6607C37.376 12.2964 36.7852 12.2964 36.4207 12.6607L26.3911 22.6894C25.6334 22.3515 24.7678 22.3515 24.0102 22.6894L19.2614 17.9406C18.8906 17.5825 18.2997 17.5928 17.9417 17.9636C17.5924 18.3252 17.5924 18.8986 17.9417 19.2603L22.6811 23.9998C22.0157 25.3928 22.6055 27.0616 23.9986 27.7269C25.0679 28.2377 26.3431 28.0187 27.1807 27.1806C28.0229 26.3455 28.2398 25.0668 27.7202 24.0007L37.7405 13.9804C38.1048 13.616 38.1048 13.0252 37.7405 12.6607ZM25.8612 25.8597C25.8611 25.8598 25.8611 25.8598 25.861 25.8599C25.4919 26.2128 24.9104 26.2128 24.5413 25.8599C24.1767 25.4954 24.1767 24.9045 24.541 24.5399C24.9055 24.1754 25.4964 24.1754 25.861 24.5397C26.2256 24.9042 26.2256 25.4952 25.8612 25.8597Z" fill="#171151"/>
</svg>
