<svg width="58" height="58" viewBox="0 0 58 58" fill="none" xmlns="http://www.w3.org/2000/svg">
<path d="M25.1738 49.5039H18.377C16.9716 49.5039 15.8281 50.6473 15.8281 52.0527C15.8281 53.4582 16.9716 54.6016 18.377 54.6016H25.1738C26.5792 54.6016 27.7227 53.4582 27.7227 52.0527C27.7227 50.6473 26.5792 49.5039 25.1738 49.5039ZM25.1738 52.9023H18.377C17.9084 52.9023 17.5273 52.5213 17.5273 52.0527C17.5273 51.5842 17.9084 51.2031 18.377 51.2031H25.1738C25.6424 51.2031 26.0234 51.5842 26.0234 52.0527C26.0234 52.5213 25.6422 52.9023 25.1738 52.9023Z" fill="black"/>
<path d="M54.0625 6.79688H40.4688V4.24805C40.4688 1.90562 38.5631 0 36.2207 0H7.33398C4.99155 0 3.08594 1.90562 3.08594 4.24805V53.752C3.08594 56.0944 4.99155 58 7.33398 58H36.2207C38.5631 58 40.4688 56.0944 40.4688 53.752V32.2852H54.0625C54.5318 32.2852 54.9121 31.9048 54.9121 31.4355V7.64648C54.9121 7.17727 54.5318 6.79688 54.0625 6.79688ZM19.2285 30.5859C19.2285 29.7955 19.6039 29.0376 20.2326 28.5585L30.6662 20.6093L33.646 22.8796C34.4039 23.457 35.3122 23.7458 36.2206 23.7458C37.1289 23.7458 38.0372 23.457 38.7951 22.8796L41.7752 20.6091L52.2089 28.5587C52.8377 29.0376 53.213 29.7956 53.213 30.5861H19.2285V30.5859ZM19.2285 11.8949L29.2643 19.5411L19.2285 27.1875V11.8949ZM43.177 19.541L53.2129 11.8945V27.1874L43.177 19.541ZM52.2087 10.5235L37.7653 21.528C36.8556 22.2209 35.5854 22.2209 34.6758 21.528L20.2324 10.5235C19.6057 10.046 19.231 9.29133 19.2286 8.50357V8.49609H53.2128C53.2128 9.28657 52.8374 10.0444 52.2087 10.5235ZM38.7695 53.752C38.7695 55.1574 37.6261 56.3008 36.2207 56.3008H7.33398C5.92862 56.3008 4.78516 55.1574 4.78516 53.752V4.24805C4.78516 2.84257 5.92862 1.69922 7.33398 1.69922H36.2207C37.6261 1.69922 38.7695 2.84257 38.7695 4.24805V6.79688H37.0703V4.24805C37.0703 3.77884 36.69 3.39844 36.2207 3.39844H7.33398C6.86466 3.39844 6.48438 3.77884 6.48438 4.24805V29.7363C6.48438 30.2055 6.86466 30.5859 7.33398 30.5859C7.80331 30.5859 8.18359 30.2055 8.18359 29.7363V5.09766H35.3711V6.79688H18.3789C17.9096 6.79688 17.5293 7.17727 17.5293 7.64648V31.4355C17.5293 31.9048 17.9096 32.2852 18.3789 32.2852H35.3711V46.1055H8.18359V33.1348C8.18359 32.6656 7.80331 32.2852 7.33398 32.2852C6.86466 32.2852 6.48438 32.6656 6.48438 33.1348V46.9551C6.48438 47.4243 6.86466 47.8047 7.33398 47.8047H36.2207C36.69 47.8047 37.0703 47.4243 37.0703 46.9551V32.2852H38.7695V53.752Z" fill="black"/>
<path d="M53 30.5H19V29.5V8.5H53V30.5Z" stroke="#10D0A1" stroke-width="2"/>
</svg>
